<svg width="100px" height="60px" viewBox="0 0 100 60" xmlns="http://www.w3.org/2000/svg">
  <g id="Eyes/Squint-😊" transform="translate(0, 8)">
    <g transform="translate(16, 13)">
      <path d="M14,14.0481187 C23.6099827,14.0481187 28,18.4994466 28,11.5617716 C28,4.62409673 21.7319865,0 14,0 C6.2680135,0 0,4.62409673 0,11.5617716 C0,18.4994466 4.39001726,14.0481187 14,14.0481187 Z" fill="#FFFFFF"/>
      <circle cx="14" cy="10" r="6" fill-opacity="0.7" fill="#000000"/>
    </g>
    <g transform="translate(68, 13)">
      <path d="M14,14.0481187 C23.6099827,14.0481187 28,18.4994466 28,11.5617716 C28,4.62409673 21.7319865,0 14,0 C6.2680135,0 0,4.62409673 0,11.5617716 C0,18.4994466 4.39001726,14.0481187 14,14.0481187 Z" fill="#FFFFFF"/>
      <circle cx="14" cy="10" r="6" fill-opacity="0.7" fill="#000000"/>
    </g>
  </g>
</svg>